<mxfile host="app.diagrams.net" modified="2024-01-18T08:29:47.010Z" agent="Mozilla/5.0 (Windows NT 10.0; Win64; x64) AppleWebKit/537.36 (KHTML, like Gecko) Chrome/120.0.0.0 Safari/537.36" etag="LkiMchiMdO6DydOFA33x" version="22.1.21" type="github">
  <diagram name="Page-1" id="bjJR5E94Fvpg1UQhGzXr">
    <mxGraphModel dx="1434" dy="772" grid="1" gridSize="10" guides="1" tooltips="1" connect="1" arrows="1" fold="1" page="1" pageScale="1" pageWidth="827" pageHeight="1169" math="0" shadow="0">
      <root>
        <mxCell id="0" />
        <mxCell id="1" parent="0" />
        <mxCell id="gRPYgcrRqpuASKGrXfH8-8" value="" style="rounded=1;whiteSpace=wrap;html=1;" vertex="1" parent="1">
          <mxGeometry x="80" y="40" width="120" height="60" as="geometry" />
        </mxCell>
        <mxCell id="gRPYgcrRqpuASKGrXfH8-9" value="" style="rounded=1;whiteSpace=wrap;html=1;" vertex="1" parent="1">
          <mxGeometry x="80" y="280" width="120" height="60" as="geometry" />
        </mxCell>
        <mxCell id="gRPYgcrRqpuASKGrXfH8-10" value="" style="endArrow=none;html=1;rounded=0;entryX=0.5;entryY=1;entryDx=0;entryDy=0;exitX=0.5;exitY=0;exitDx=0;exitDy=0;" edge="1" parent="1" source="gRPYgcrRqpuASKGrXfH8-9" target="gRPYgcrRqpuASKGrXfH8-8">
          <mxGeometry width="50" height="50" relative="1" as="geometry">
            <mxPoint x="390" y="320" as="sourcePoint" />
            <mxPoint x="440" y="270" as="targetPoint" />
            <Array as="points" />
          </mxGeometry>
        </mxCell>
        <mxCell id="gRPYgcrRqpuASKGrXfH8-11" value="" style="rounded=1;whiteSpace=wrap;html=1;" vertex="1" parent="1">
          <mxGeometry x="354" y="240" width="120" height="60" as="geometry" />
        </mxCell>
        <mxCell id="gRPYgcrRqpuASKGrXfH8-12" value="" style="rounded=1;whiteSpace=wrap;html=1;arcSize=17;" vertex="1" parent="1">
          <mxGeometry x="354" y="90" width="120" height="60" as="geometry" />
        </mxCell>
        <mxCell id="gRPYgcrRqpuASKGrXfH8-13" value="" style="endArrow=none;html=1;rounded=0;exitX=1;exitY=0.5;exitDx=0;exitDy=0;entryX=0;entryY=0.25;entryDx=0;entryDy=0;" edge="1" parent="1" source="gRPYgcrRqpuASKGrXfH8-8" target="gRPYgcrRqpuASKGrXfH8-12">
          <mxGeometry width="50" height="50" relative="1" as="geometry">
            <mxPoint x="390" y="320" as="sourcePoint" />
            <mxPoint x="350" y="70" as="targetPoint" />
          </mxGeometry>
        </mxCell>
        <mxCell id="gRPYgcrRqpuASKGrXfH8-14" value="" style="endArrow=none;html=1;rounded=0;entryX=0;entryY=1;entryDx=0;entryDy=0;exitX=0.75;exitY=0;exitDx=0;exitDy=0;" edge="1" parent="1" source="gRPYgcrRqpuASKGrXfH8-9" target="gRPYgcrRqpuASKGrXfH8-12">
          <mxGeometry width="50" height="50" relative="1" as="geometry">
            <mxPoint x="390" y="320" as="sourcePoint" />
            <mxPoint x="440" y="270" as="targetPoint" />
          </mxGeometry>
        </mxCell>
        <mxCell id="gRPYgcrRqpuASKGrXfH8-15" value="" style="endArrow=none;html=1;rounded=0;entryX=0.5;entryY=1;entryDx=0;entryDy=0;exitX=0.5;exitY=0;exitDx=0;exitDy=0;" edge="1" parent="1" source="gRPYgcrRqpuASKGrXfH8-11" target="gRPYgcrRqpuASKGrXfH8-12">
          <mxGeometry width="50" height="50" relative="1" as="geometry">
            <mxPoint x="390" y="320" as="sourcePoint" />
            <mxPoint x="440" y="270" as="targetPoint" />
          </mxGeometry>
        </mxCell>
        <mxCell id="gRPYgcrRqpuASKGrXfH8-16" value="" style="endArrow=none;html=1;rounded=0;entryX=1;entryY=0.5;entryDx=0;entryDy=0;exitX=0;exitY=0.5;exitDx=0;exitDy=0;" edge="1" parent="1" source="gRPYgcrRqpuASKGrXfH8-11" target="gRPYgcrRqpuASKGrXfH8-9">
          <mxGeometry width="50" height="50" relative="1" as="geometry">
            <mxPoint x="390" y="320" as="sourcePoint" />
            <mxPoint x="440" y="270" as="targetPoint" />
          </mxGeometry>
        </mxCell>
        <mxCell id="gRPYgcrRqpuASKGrXfH8-17" value="" style="endArrow=none;html=1;rounded=0;entryX=0.75;entryY=1;entryDx=0;entryDy=0;exitX=0.183;exitY=-0.033;exitDx=0;exitDy=0;exitPerimeter=0;" edge="1" parent="1" source="gRPYgcrRqpuASKGrXfH8-11" target="gRPYgcrRqpuASKGrXfH8-8">
          <mxGeometry width="50" height="50" relative="1" as="geometry">
            <mxPoint x="360" y="280" as="sourcePoint" />
            <mxPoint x="440" y="270" as="targetPoint" />
          </mxGeometry>
        </mxCell>
        <mxCell id="gRPYgcrRqpuASKGrXfH8-18" value="" style="rounded=1;whiteSpace=wrap;html=1;" vertex="1" parent="1">
          <mxGeometry x="600" y="40" width="120" height="60" as="geometry" />
        </mxCell>
        <mxCell id="gRPYgcrRqpuASKGrXfH8-19" value="" style="endArrow=none;html=1;rounded=0;entryX=0;entryY=0.25;entryDx=0;entryDy=0;exitX=1;exitY=0.25;exitDx=0;exitDy=0;" edge="1" parent="1" source="gRPYgcrRqpuASKGrXfH8-8" target="gRPYgcrRqpuASKGrXfH8-18">
          <mxGeometry width="50" height="50" relative="1" as="geometry">
            <mxPoint x="414" y="90" as="sourcePoint" />
            <mxPoint x="464" y="40" as="targetPoint" />
          </mxGeometry>
        </mxCell>
        <mxCell id="gRPYgcrRqpuASKGrXfH8-20" value="" style="endArrow=none;html=1;rounded=0;entryX=0;entryY=0.5;entryDx=0;entryDy=0;exitX=1;exitY=0.25;exitDx=0;exitDy=0;" edge="1" parent="1" source="gRPYgcrRqpuASKGrXfH8-12" target="gRPYgcrRqpuASKGrXfH8-18">
          <mxGeometry width="50" height="50" relative="1" as="geometry">
            <mxPoint x="480" y="70" as="sourcePoint" />
            <mxPoint x="440" y="270" as="targetPoint" />
          </mxGeometry>
        </mxCell>
        <mxCell id="gRPYgcrRqpuASKGrXfH8-21" value="" style="endArrow=none;html=1;rounded=0;entryX=0.2;entryY=1.05;entryDx=0;entryDy=0;entryPerimeter=0;" edge="1" parent="1" source="gRPYgcrRqpuASKGrXfH8-11" target="gRPYgcrRqpuASKGrXfH8-18">
          <mxGeometry width="50" height="50" relative="1" as="geometry">
            <mxPoint x="390" y="320" as="sourcePoint" />
            <mxPoint x="440" y="270" as="targetPoint" />
          </mxGeometry>
        </mxCell>
        <mxCell id="gRPYgcrRqpuASKGrXfH8-22" value="" style="endArrow=none;html=1;rounded=0;entryX=0;entryY=1;entryDx=0;entryDy=0;exitX=1;exitY=0;exitDx=0;exitDy=0;" edge="1" parent="1" source="gRPYgcrRqpuASKGrXfH8-9" target="gRPYgcrRqpuASKGrXfH8-18">
          <mxGeometry width="50" height="50" relative="1" as="geometry">
            <mxPoint x="390" y="320" as="sourcePoint" />
            <mxPoint x="440" y="270" as="targetPoint" />
          </mxGeometry>
        </mxCell>
        <mxCell id="gRPYgcrRqpuASKGrXfH8-23" value="" style="rounded=1;whiteSpace=wrap;html=1;" vertex="1" parent="1">
          <mxGeometry x="600" y="280" width="120" height="60" as="geometry" />
        </mxCell>
        <mxCell id="gRPYgcrRqpuASKGrXfH8-24" value="" style="endArrow=none;html=1;rounded=0;entryX=0.5;entryY=1;entryDx=0;entryDy=0;exitX=0.5;exitY=0;exitDx=0;exitDy=0;" edge="1" parent="1" source="gRPYgcrRqpuASKGrXfH8-23" target="gRPYgcrRqpuASKGrXfH8-18">
          <mxGeometry width="50" height="50" relative="1" as="geometry">
            <mxPoint x="390" y="320" as="sourcePoint" />
            <mxPoint x="440" y="270" as="targetPoint" />
          </mxGeometry>
        </mxCell>
        <mxCell id="gRPYgcrRqpuASKGrXfH8-25" value="" style="endArrow=none;html=1;rounded=0;entryX=0;entryY=0.5;entryDx=0;entryDy=0;exitX=1;exitY=0.5;exitDx=0;exitDy=0;" edge="1" parent="1" source="gRPYgcrRqpuASKGrXfH8-11" target="gRPYgcrRqpuASKGrXfH8-23">
          <mxGeometry width="50" height="50" relative="1" as="geometry">
            <mxPoint x="390" y="320" as="sourcePoint" />
            <mxPoint x="440" y="270" as="targetPoint" />
          </mxGeometry>
        </mxCell>
        <mxCell id="gRPYgcrRqpuASKGrXfH8-26" value="" style="endArrow=none;html=1;rounded=0;entryX=1;entryY=1;entryDx=0;entryDy=0;exitX=0.25;exitY=0;exitDx=0;exitDy=0;" edge="1" parent="1" source="gRPYgcrRqpuASKGrXfH8-23" target="gRPYgcrRqpuASKGrXfH8-12">
          <mxGeometry width="50" height="50" relative="1" as="geometry">
            <mxPoint x="390" y="320" as="sourcePoint" />
            <mxPoint x="440" y="270" as="targetPoint" />
          </mxGeometry>
        </mxCell>
        <mxCell id="gRPYgcrRqpuASKGrXfH8-27" value="" style="endArrow=none;html=1;rounded=0;entryX=0;entryY=0.75;entryDx=0;entryDy=0;exitX=1;exitY=0.75;exitDx=0;exitDy=0;" edge="1" parent="1" source="gRPYgcrRqpuASKGrXfH8-9" target="gRPYgcrRqpuASKGrXfH8-23">
          <mxGeometry width="50" height="50" relative="1" as="geometry">
            <mxPoint x="390" y="320" as="sourcePoint" />
            <mxPoint x="440" y="270" as="targetPoint" />
          </mxGeometry>
        </mxCell>
        <mxCell id="gRPYgcrRqpuASKGrXfH8-28" value="" style="endArrow=none;html=1;rounded=0;entryX=0;entryY=0;entryDx=0;entryDy=0;exitX=1;exitY=1;exitDx=0;exitDy=0;" edge="1" parent="1" source="gRPYgcrRqpuASKGrXfH8-8" target="gRPYgcrRqpuASKGrXfH8-23">
          <mxGeometry width="50" height="50" relative="1" as="geometry">
            <mxPoint x="390" y="320" as="sourcePoint" />
            <mxPoint x="440" y="270" as="targetPoint" />
          </mxGeometry>
        </mxCell>
      </root>
    </mxGraphModel>
  </diagram>
</mxfile>
